<mxfile host="65bd71144e">
    <diagram id="X-GEyPqx4MM65diobT5k" name="Page-1">
        <mxGraphModel dx="883" dy="617" grid="1" gridSize="10" guides="1" tooltips="1" connect="1" arrows="1" fold="1" page="1" pageScale="1" pageWidth="850" pageHeight="1100" math="0" shadow="0">
            <root>
                <mxCell id="0"/>
                <mxCell id="1" parent="0"/>
                <mxCell id="2" value="" style="rounded=1;whiteSpace=wrap;html=1;arcSize=5;" parent="1" vertex="1">
                    <mxGeometry x="160" y="216" width="560" height="669" as="geometry"/>
                </mxCell>
                <mxCell id="3" value="" style="edgeStyle=none;html=1;fontSize=14;endArrow=classic;endFill=1;entryX=0;entryY=0.5;entryDx=0;entryDy=0;" parent="1" source="5" target="12" edge="1">
                    <mxGeometry relative="1" as="geometry">
                        <mxPoint x="180.05857871186458" y="577.544979098704" as="targetPoint"/>
                    </mxGeometry>
                </mxCell>
                <mxCell id="4" style="edgeStyle=none;html=1;entryX=0;entryY=0.5;entryDx=0;entryDy=0;fontSize=14;endArrow=classic;endFill=1;" parent="1" source="5" target="17" edge="1">
                    <mxGeometry relative="1" as="geometry"/>
                </mxCell>
                <mxCell id="5" value="Client" style="shape=umlActor;verticalLabelPosition=bottom;verticalAlign=top;html=1;outlineConnect=0;" parent="1" vertex="1">
                    <mxGeometry x="70" y="521" width="30" height="60" as="geometry"/>
                </mxCell>
                <mxCell id="6" style="edgeStyle=none;html=1;entryX=0;entryY=0.5;entryDx=0;entryDy=0;fontSize=14;" parent="1" source="7" target="9" edge="1">
                    <mxGeometry relative="1" as="geometry"/>
                </mxCell>
                <mxCell id="7" value="User" style="shape=umlActor;verticalLabelPosition=bottom;verticalAlign=top;html=1;outlineConnect=0;" parent="1" vertex="1">
                    <mxGeometry x="70" y="347" width="30" height="60" as="geometry"/>
                </mxCell>
                <mxCell id="8" value="&lt;font style=&quot;font-size: 12px&quot;&gt;&amp;lt;&amp;lt;include&amp;gt;&amp;gt;&lt;/font&gt;" style="edgeStyle=none;html=1;fontSize=14;dashed=1;endArrow=open;endFill=0;" parent="1" source="9" target="10" edge="1">
                    <mxGeometry relative="1" as="geometry"/>
                </mxCell>
                <mxCell id="9" value="Erengistrer" style="ellipse;whiteSpace=wrap;html=1;" parent="1" vertex="1">
                    <mxGeometry x="248" y="347" width="100" height="60" as="geometry"/>
                </mxCell>
                <mxCell id="10" value="&lt;font style=&quot;font-size: 12px&quot;&gt;forme enregistrement&lt;/font&gt;" style="ellipse;whiteSpace=wrap;html=1;" parent="1" vertex="1">
                    <mxGeometry x="500" y="348" width="100" height="60" as="geometry"/>
                </mxCell>
                <mxCell id="11" value="&lt;font style=&quot;font-size: 12px&quot;&gt;&amp;lt;&amp;lt;include&amp;gt;&amp;gt;&lt;/font&gt;" style="edgeStyle=none;html=1;fontSize=14;endArrow=open;endFill=0;dashed=1;" parent="1" source="12" target="13" edge="1">
                    <mxGeometry relative="1" as="geometry"/>
                </mxCell>
                <mxCell id="12" value="&lt;font style=&quot;font-size: 12px&quot;&gt;prendre &lt;br&gt;rendez-vous&lt;/font&gt;" style="ellipse;whiteSpace=wrap;html=1;" parent="1" vertex="1">
                    <mxGeometry x="250" y="476" width="108" height="62" as="geometry"/>
                </mxCell>
                <mxCell id="13" value="&lt;font style=&quot;font-size: 12px&quot;&gt;Log In&lt;/font&gt;" style="ellipse;whiteSpace=wrap;html=1;" parent="1" vertex="1">
                    <mxGeometry x="537" y="538" width="80" height="55" as="geometry"/>
                </mxCell>
                <mxCell id="14" value="&lt;font style=&quot;font-size: 12px&quot;&gt;&amp;lt;&amp;lt;include&amp;gt;&amp;gt;&lt;/font&gt;" style="edgeStyle=none;html=1;fontSize=14;endArrow=open;endFill=0;dashed=1;" parent="1" source="17" target="13" edge="1">
                    <mxGeometry relative="1" as="geometry"/>
                </mxCell>
                <mxCell id="15" value="&amp;lt;&amp;lt;extend&amp;gt;&amp;gt;" style="edgeStyle=none;html=1;dashed=1;fontSize=14;endArrow=none;endFill=0;startArrow=open;startFill=0;" parent="1" source="17" target="18" edge="1">
                    <mxGeometry relative="1" as="geometry"/>
                </mxCell>
                <mxCell id="16" value="&amp;lt;&amp;lt;extend&amp;gt;&amp;gt;" style="edgeStyle=none;html=1;entryX=0.5;entryY=0;entryDx=0;entryDy=0;dashed=1;fontSize=14;endArrow=none;endFill=0;startArrow=open;startFill=0;" parent="1" source="17" target="19" edge="1">
                    <mxGeometry relative="1" as="geometry"/>
                </mxCell>
                <mxCell id="17" value="&lt;font style=&quot;font-size: 12px&quot;&gt;Afficher l'historique des rendez-vous&lt;/font&gt;" style="ellipse;whiteSpace=wrap;html=1;" parent="1" vertex="1">
                    <mxGeometry x="248" y="584" width="123" height="64" as="geometry"/>
                </mxCell>
                <mxCell id="18" value="&lt;font style=&quot;font-size: 12px&quot;&gt;Annuler rendez-vous&lt;/font&gt;" style="ellipse;whiteSpace=wrap;html=1;" parent="1" vertex="1">
                    <mxGeometry x="371" y="713.5" width="110" height="55" as="geometry"/>
                </mxCell>
                <mxCell id="19" value="&lt;span class=&quot;VIiyi&quot; lang=&quot;en&quot;&gt;Télécharger le reçu&lt;/span&gt;" style="ellipse;whiteSpace=wrap;html=1;" parent="1" vertex="1">
                    <mxGeometry x="190" y="719.75" width="90" height="42.5" as="geometry"/>
                </mxCell>
                <mxCell id="20" value="&lt;b style=&quot;color: rgb(240 , 240 , 240) ; font-family: &amp;#34;helvetica&amp;#34; ; font-size: 18px ; font-style: normal ; letter-spacing: normal ; text-align: center ; text-indent: 0px ; text-transform: none ; word-spacing: 0px ; background-color: rgb(42 , 42 , 42)&quot;&gt;Use Case diagramme Cabinet Dentaire&lt;/b&gt;" style="text;whiteSpace=wrap;html=1;fontSize=12;" parent="1" vertex="1">
                    <mxGeometry x="270" y="246" width="360" height="30" as="geometry"/>
                </mxCell>
            </root>
        </mxGraphModel>
    </diagram>
    <diagram id="HGSeJbDtDPCBnuhCSMMC" name="Page-2">
        <mxGraphModel dx="883" dy="617" grid="1" gridSize="10" guides="1" tooltips="1" connect="1" arrows="1" fold="1" page="1" pageScale="1" pageWidth="827" pageHeight="1169" math="0" shadow="0">
            <root>
                <mxCell id="4AOC7NnVAa3mEFFln4Y4-0"/>
                <mxCell id="4AOC7NnVAa3mEFFln4Y4-1" parent="4AOC7NnVAa3mEFFln4Y4-0"/>
                <mxCell id="DHcJFi3ret-h4pexfGL2-0" style="edgeStyle=none;html=1;endArrow=diamondThin;endFill=0;entryX=-0.008;entryY=0.557;entryDx=0;entryDy=0;entryPerimeter=0;" parent="4AOC7NnVAa3mEFFln4Y4-1" source="4AOC7NnVAa3mEFFln4Y4-3" target="4AOC7NnVAa3mEFFln4Y4-4" edge="1">
                    <mxGeometry relative="1" as="geometry">
                        <mxPoint x="520" y="401" as="targetPoint"/>
                    </mxGeometry>
                </mxCell>
                <mxCell id="DHcJFi3ret-h4pexfGL2-2" value="1..*" style="edgeLabel;html=1;align=center;verticalAlign=middle;resizable=0;points=[];" parent="DHcJFi3ret-h4pexfGL2-0" vertex="1" connectable="0">
                    <mxGeometry x="0.4931" y="-1" relative="1" as="geometry">
                        <mxPoint x="32" y="10" as="offset"/>
                    </mxGeometry>
                </mxCell>
                <mxCell id="4AOC7NnVAa3mEFFln4Y4-3" value="&lt;table border=&quot;1&quot; width=&quot;100%&quot; cellpadding=&quot;4&quot; style=&quot;width: 100% ; height: 100% ; border-collapse: collapse&quot;&gt;&lt;tbody&gt;&lt;tr&gt;&lt;th align=&quot;center&quot;&gt;&lt;span style=&quot;font-size: 24px&quot;&gt;Utilisateur&lt;/span&gt;&lt;/th&gt;&lt;/tr&gt;&lt;tr&gt;&lt;td&gt;&lt;font style=&quot;font-size: 18px&quot;&gt;ID:int&lt;br&gt;Nom:varchar(30)&lt;br&gt;Prénom:varchar(30)&lt;br&gt;Date:date&lt;br&gt;Tele_number:varchar(15)&lt;br&gt;email:varchar(50)&lt;br&gt;&lt;/font&gt;&lt;/td&gt;&lt;/tr&gt;&lt;tr&gt;&lt;td&gt;&lt;font size=&quot;3&quot;&gt;Ajouter();&lt;br&gt;Afficher();&lt;br&gt;Modifier();&lt;br&gt;Recherch():&lt;br&gt;suprimer();&lt;br&gt;&lt;/font&gt;&lt;/td&gt;&lt;/tr&gt;&lt;/tbody&gt;&lt;/table&gt;" style="text;html=1;strokeColor=#FFFFFF;fillColor=none;overflow=fill;shadow=0;" parent="4AOC7NnVAa3mEFFln4Y4-1" vertex="1">
                    <mxGeometry x="30" y="240" width="300" height="320" as="geometry"/>
                </mxCell>
                <mxCell id="4AOC7NnVAa3mEFFln4Y4-4" value="&lt;table border=&quot;1&quot; width=&quot;100%&quot; cellpadding=&quot;4&quot; style=&quot;width: 100% ; height: 100% ; border-collapse: collapse&quot;&gt;&lt;tbody&gt;&lt;tr&gt;&lt;th align=&quot;center&quot;&gt;&lt;span style=&quot;font-size: 24px&quot;&gt;Rendez-vous&lt;/span&gt;&lt;/th&gt;&lt;/tr&gt;&lt;tr&gt;&lt;td&gt;&lt;font style=&quot;font-size: 18px&quot;&gt;ID:int&lt;br&gt;Date:date&lt;br&gt;Raison:varchar(50)&lt;/font&gt;&lt;/td&gt;&lt;/tr&gt;&lt;tr&gt;&lt;td&gt;&lt;font size=&quot;3&quot;&gt;&lt;br&gt;&lt;/font&gt;&lt;/td&gt;&lt;/tr&gt;&lt;/tbody&gt;&lt;/table&gt;" style="text;html=1;strokeColor=#FFFFFF;fillColor=none;overflow=fill;shadow=1;" parent="4AOC7NnVAa3mEFFln4Y4-1" vertex="1">
                    <mxGeometry x="530" y="250" width="285" height="270" as="geometry"/>
                </mxCell>
                <mxCell id="4AOC7NnVAa3mEFFln4Y4-9" value="&lt;span style=&quot;font-size: 18px&quot;&gt;&lt;b&gt;classe de diagramme&lt;/b&gt;&lt;/span&gt;" style="rounded=0;whiteSpace=wrap;html=1;" parent="4AOC7NnVAa3mEFFln4Y4-1" vertex="1">
                    <mxGeometry x="258" y="100" width="312" height="56.33" as="geometry"/>
                </mxCell>
                <mxCell id="DHcJFi3ret-h4pexfGL2-1" value="1.1" style="text;html=1;align=center;verticalAlign=middle;resizable=0;points=[];autosize=1;strokeColor=none;fillColor=none;" parent="4AOC7NnVAa3mEFFln4Y4-1" vertex="1">
                    <mxGeometry x="331" y="379" width="30" height="20" as="geometry"/>
                </mxCell>
                <mxCell id="DHcJFi3ret-h4pexfGL2-3" value="Gérer" style="text;html=1;align=center;verticalAlign=middle;resizable=0;points=[];autosize=1;strokeColor=none;fillColor=none;" parent="4AOC7NnVAa3mEFFln4Y4-1" vertex="1">
                    <mxGeometry x="405" y="380" width="50" height="20" as="geometry"/>
                </mxCell>
            </root>
        </mxGraphModel>
    </diagram>
</mxfile>